<?xml version="1.0" encoding="UTF-8" standalone="no"?>
<!-- Created with Inkscape (http://www.inkscape.org/) -->

<svg
   xmlns:dc="http://purl.org/dc/elements/1.1/"
   xmlns:cc="http://creativecommons.org/ns#"
   xmlns:rdf="http://www.w3.org/1999/02/22-rdf-syntax-ns#"
   xmlns:svg="http://www.w3.org/2000/svg"
   xmlns="http://www.w3.org/2000/svg"
   xmlns:sodipodi="http://sodipodi.sourceforge.net/DTD/sodipodi-0.dtd"
   xmlns:inkscape="http://www.inkscape.org/namespaces/inkscape"
   width="512"
   height="512"
   viewBox="0 0 135.46666 135.46667"
   version="1.1"
   id="svg8"
   sodipodi:docname="icon_repeat.svg"
   inkscape:version="0.92.1 r15371"
   inkscape:export-filename="/home/xruxa/AndroidStudioProjects/DropboxPlayer/app/src/main/res/drawable-hdpi/icon_repeat.png"
   inkscape:export-xdpi="18"
   inkscape:export-ydpi="18">
  <defs
     id="defs2" />
  <sodipodi:namedview
     id="base"
     pagecolor="#000000"
     bordercolor="#666666"
     borderopacity="1.0"
     inkscape:pageopacity="0"
     inkscape:pageshadow="2"
     inkscape:zoom="1"
     inkscape:cx="256"
     inkscape:cy="256"
     inkscape:document-units="mm"
     inkscape:current-layer="layer1"
     showgrid="false"
     units="px"
     inkscape:window-width="1871"
     inkscape:window-height="1056"
     inkscape:window-x="49"
     inkscape:window-y="24"
     inkscape:window-maximized="1" />
  <metadata
     id="metadata5">
    <rdf:RDF>
      <cc:Work
         rdf:about="">
        <dc:format>image/svg+xml</dc:format>
        <dc:type
           rdf:resource="http://purl.org/dc/dcmitype/StillImage" />
        <dc:title />
      </cc:Work>
    </rdf:RDF>
  </metadata>
  <g
     inkscape:label="Layer 1"
     inkscape:groupmode="layer"
     id="layer1"
     transform="translate(0,-161.53332)">
    <path
       style="opacity:1;fill:#404040;fill-opacity:1;stroke:none;stroke-width:0.68595678;stroke-miterlimit:4;stroke-dasharray:none;stroke-opacity:0.46951222"
       d="m 33.314277,195.77015 c -5.117376,0 -9.237194,4.11982 -9.237194,9.2372 v 49.89263 c 0,5.11737 4.119818,9.2372 9.237194,9.2372 h 58.564006 v -6.74525 H 34.289175 c -1.603937,0 -2.89522,-1.29128 -2.89522,-2.89522 v -49.0861 c 0,-1.60394 1.291283,-2.89522 2.89522,-2.89522 h 10.295603 l -3.592339,-3.59234 3.152899,-3.1529 z m 16.893918,0 v 6.74524 h 56.260965 c 1.60393,0 2.89521,1.29128 2.89521,2.89522 v 49.0861 c 0,1.60394 -1.29128,2.89522 -2.89521,2.89522 h -8.515067 l 3.139947,3.13995 -3.605291,3.6053 h 9.955301 c 5.11738,0 9.2372,-4.11983 9.2372,-9.2372 v -49.89263 c 0,-5.11738 -4.11982,-9.2372 -9.2372,-9.2372 z"
       id="rect4498"
       inkscape:connector-curvature="0" />
    <path
       style="opacity:1;fill:#404040;fill-opacity:1;stroke:none;stroke-width:0.68595678;stroke-miterlimit:4;stroke-dasharray:none;stroke-opacity:0.46951222"
       d="m 44.486705,198.92301 9.215854,-9.21585 v 18.4317 z"
       id="rect4503"
       inkscape:connector-curvature="0"
       sodipodi:nodetypes="cccc" />
    <path
       sodipodi:nodetypes="cccc"
       inkscape:connector-curvature="0"
       id="path4513"
       d="m 98.276245,260.27586 -9.215852,-9.21585 v 18.4317 z"
       style="opacity:1;fill:#404040;fill-opacity:1;stroke:none;stroke-width:0.68595678;stroke-miterlimit:4;stroke-dasharray:none;stroke-opacity:0.46951222" />
  </g>
</svg>
