<?xml version="1.0" encoding="UTF-8" standalone="no"?>
<!-- Created with Inkscape (http://www.inkscape.org/) -->

<svg
   xmlns:dc="http://purl.org/dc/elements/1.1/"
   xmlns:cc="http://creativecommons.org/ns#"
   xmlns:rdf="http://www.w3.org/1999/02/22-rdf-syntax-ns#"
   xmlns:svg="http://www.w3.org/2000/svg"
   xmlns="http://www.w3.org/2000/svg"
   xmlns:sodipodi="http://sodipodi.sourceforge.net/DTD/sodipodi-0.dtd"
   xmlns:inkscape="http://www.inkscape.org/namespaces/inkscape"
   width="512"
   height="512"
   viewBox="0 0 135.46666 135.46667"
   version="1.1"
   id="svg8"
   inkscape:version="0.92.1 r15371"
   sodipodi:docname="icon_song.svg"
   inkscape:export-filename="/home/xruxa/AndroidStudioProjects/DropboxPlayer/app/src/main/res/drawable-hdpi/icon_record.png"
   inkscape:export-xdpi="12.000001"
   inkscape:export-ydpi="12.000001">
  <defs
     id="defs2" />
  <sodipodi:namedview
     id="base"
     pagecolor="#000000"
     bordercolor="#666666"
     borderopacity="1.0"
     inkscape:pageopacity="1"
     inkscape:pageshadow="2"
     inkscape:zoom="1"
     inkscape:cx="247.64333"
     inkscape:cy="256"
     inkscape:document-units="mm"
     inkscape:current-layer="layer1"
     showgrid="false"
     units="px"
     inkscape:window-width="1871"
     inkscape:window-height="1056"
     inkscape:window-x="49"
     inkscape:window-y="24"
     inkscape:window-maximized="1" />
  <metadata
     id="metadata5">
    <rdf:RDF>
      <cc:Work
         rdf:about="">
        <dc:format>image/svg+xml</dc:format>
        <dc:type
           rdf:resource="http://purl.org/dc/dcmitype/StillImage" />
        <dc:title></dc:title>
      </cc:Work>
    </rdf:RDF>
  </metadata>
  <g
     inkscape:label="Layer 1"
     inkscape:groupmode="layer"
     id="layer1"
     transform="translate(0,-161.53332)">
    <path
       style="opacity:1;fill:#262626;fill-opacity:1;stroke:none;stroke-width:1.11017513;stroke-miterlimit:4;stroke-dasharray:none;stroke-opacity:1"
       id="path5036"
       sodipodi:type="arc"
       sodipodi:cx="67.881546"
       sodipodi:cy="228.97021"
       sodipodi:rx="65.065498"
       sodipodi:ry="65.065498"
       sodipodi:start="4.9749214"
       sodipodi:end="4.9722511"
       sodipodi:open="true"
       d="M 84.767802,166.13413 A 65.065498,65.065498 0 0 1 130.72889,245.81452 65.065498,65.065498 0 0 1 51.079201,291.82879 65.065498,65.065498 0 0 1 5.0117696,212.20984 65.065498,65.065498 0 0 1 84.59995,166.08926" />
    <path
       sodipodi:type="spiral"
       style="fill:none;fill-rule:evenodd;stroke:#000000;stroke-width:0.26458332px;stroke-linecap:butt;stroke-linejoin:miter;stroke-opacity:1;"
       id="path5152"
       sodipodi:cx="68.816833"
       sodipodi:cy="229.62865"
       sodipodi:expansion="1"
       sodipodi:revolution="15"
       sodipodi:radius="65.6138"
       sodipodi:argument="-93.455414"
       sodipodi:t0="0.032044198"
       d="m 67.169949,228.32157 c 0.531923,-1.45218 2.348503,-1.82741 3.633794,-1.19638 1.905661,0.93562 2.35961,3.40648 1.373113,5.1702 -1.322326,2.36413 -4.469466,2.89772 -6.706594,1.54985 -2.825378,-1.7023 -3.438838,-5.53478 -1.726589,-8.243 2.078953,-3.28822 6.601373,-3.98167 9.779394,-1.90332 3.75206,2.45375 4.525574,7.66877 2.080065,11.31579 -2.827398,4.21654 -8.736695,5.07019 -12.852194,2.2568 -4.681469,-3.20029 -5.615305,-9.80499 -2.433541,-14.38859 3.572656,-5.14672 10.873559,-6.16078 15.924994,-2.61028 5.612201,3.94465 6.706521,11.94233 2.787017,17.4614 -4.316349,6.07786 -13.011257,7.25247 -18.997794,2.96375 -6.543667,-4.68784 -7.798581,-14.08031 -3.140494,-20.53419 5.059159,-7.00958 15.149457,-8.34482 22.070595,-3.31724 7.475584,5.43035 8.891164,16.21869 3.49397,23.607 -5.801421,7.94166 -17.287983,9.43759 -25.143395,3.67071 -8.407797,-6.17241 -9.984094,-18.35734 -3.847446,-26.6798 6.54332,-8.87398 19.426732,-10.53065 28.216195,-4.02418 9.340214,6.91417 11.077267,20.49617 4.200922,29.75259 -7.284966,9.80648 -21.565642,11.62393 -31.288995,4.37766 -10.272778,-7.65571 -12.170615,-22.63514 -4.554398,-32.82539 8.02643,-10.7391 23.70467,-12.71734 34.361795,-4.73114 11.205452,8.39711 13.264095,24.77422 4.907874,35.8982 -8.767757,11.67182 -25.843789,13.81087 -37.434595,5.08461 -12.138208,-9.13838 -14.357675,-26.91338 -5.261351,-38.971 9.50898,-12.60461 27.982979,-14.90449 40.507396,-5.43808 13.071033,9.87955 15.451333,29.05259 5.614827,42.04379 -10.250119,13.53746 -30.122225,15.99819 -43.580196,5.79157 -14.003904,-10.62067 -16.545057,-31.19187 -5.968303,-45.1166 10.991194,-14.47036 32.261515,-17.09194 46.652996,-6.14504 14.936819,11.36171 17.638829,33.33117 6.321779,48.18939 -11.732215,15.4033 -34.400843,18.18574 -49.725796,6.49852 -15.86977,-12.10271 -18.732646,-35.47052 -6.675255,-51.26219 12.473192,-16.33626 36.540202,-19.27957 52.798596,-6.852 16.802745,12.84367 19.826495,37.60989 7.028731,54.335 -13.214133,17.26925 -38.679586,20.37343 -55.871396,7.20547 -17.735751,-13.58459 -20.920376,-39.74929 -7.382208,-57.4078 13.955044,-18.20226 40.818993,-21.46732 58.944197,-7.55894 18.668771,14.32549 22.014281,41.8887 7.735681,60.48059 -14.695925,19.1353 -42.958414,22.56124 -62.016993,7.91243 -19.601815,-15.06637 -23.108208,-44.02814 -8.089161,-63.5534 15.43679,-20.06834 45.097858,-23.65518 65.089796,-8.2659 20.534868,15.80721 24.202148,46.16758 8.442638,66.6262 -16.177634,21.0014 -47.237314,24.74913 -68.162597,8.61937 -21.467938,-16.54805 -25.296114,-48.30704 -8.796113,-69.699 16.918459,-21.93447 49.37678,-25.84309 71.2354,-8.97285 22.40101,17.28887 26.39008,50.44652 9.14959,72.7718 -17.659275,22.86756 -51.516262,26.93708 -74.308201,9.32633 -23.334107,-18.02967 -27.4840755,-52.586 -9.503066,-75.8446 18.40007,-23.80065 53.655745,-28.03107 77.380997,-9.6798 24.2672,18.77046 28.57807,54.72549 9.85654,78.91739 C 94.151315,289.66103 57.496932,294.05235 32.838375,274.96055 7.6380641,255.44931 3.1662937,218.09556 22.628357,192.97036 42.509992,167.30349 80.5631,162.75127 106.15495,182.5836 c 26.13343,20.25202 30.7661,59.0045 10.5635,85.063 -20.622405,26.59998 -60.074254,31.31311 -86.599399,10.74023 -27.0665428,-20.99278 -31.8601218,-61.14401 -10.91697,-88.1358 21.363163,-27.5331 62.213767,-32.40713 89.672199,-11.0937 27.99967,21.73354 32.95415,63.28352 11.27044,91.20859 -1.62881,2.09765 -3.38526,4.09609 -5.25632,5.98083" />
    <path
       d="m 75.363042,201.13054 a 28.827425,28.827425 0 0 1 20.36317,35.30258 28.827425,28.827425 0 0 1 -35.288985,20.38674 28.827425,28.827425 0 0 1 -20.410286,-35.27537 28.827425,28.827425 0 0 1 35.261734,-20.43383"
       sodipodi:open="true"
       sodipodi:end="4.9722511"
       sodipodi:start="4.9749214"
       sodipodi:ry="28.827425"
       sodipodi:rx="28.827425"
       sodipodi:cy="228.97021"
       sodipodi:cx="67.881546"
       sodipodi:type="arc"
       id="path5057"
       style="opacity:1;fill:#3d3c3c;fill-opacity:1;stroke:none;stroke-width:0.49186575;stroke-miterlimit:4;stroke-dasharray:none;stroke-opacity:1" />
    <path
       style="opacity:1;fill:#000000;fill-opacity:1;stroke:none;stroke-width:0.05816407;stroke-miterlimit:4;stroke-dasharray:none;stroke-opacity:1"
       id="path5067"
       sodipodi:type="arc"
       sodipodi:cx="67.881546"
       sodipodi:cy="228.97021"
       sodipodi:rx="3.4088984"
       sodipodi:ry="3.4088984"
       sodipodi:start="4.9749214"
       sodipodi:end="4.9722511"
       sodipodi:open="true"
       d="m 68.766247,225.67812 a 3.4088984,3.4088984 0 0 1 2.407984,4.1746 3.4088984,3.4088984 0 0 1 -4.17299,2.41077 3.4088984,3.4088984 0 0 1 -2.413556,-4.17138 3.4088984,3.4088984 0 0 1 4.169768,-2.41634" />
  </g>
</svg>
